<?xml version="1.0" encoding="UTF-8" standalone="no"?>
<!-- Created with Inkscape (http://www.inkscape.org/) -->

<svg
   xmlns:dc="http://purl.org/dc/elements/1.1/"
   xmlns:cc="http://creativecommons.org/ns#"
   xmlns:rdf="http://www.w3.org/1999/02/22-rdf-syntax-ns#"
   xmlns:svg="http://www.w3.org/2000/svg"
   xmlns="http://www.w3.org/2000/svg"
   xmlns:xlink="http://www.w3.org/1999/xlink"
   xmlns:sodipodi="http://sodipodi.sourceforge.net/DTD/sodipodi-0.dtd"
   xmlns:inkscape="http://www.inkscape.org/namespaces/inkscape"
   width="480"
   height="696"
   id="svg2"
   version="1.1"
   inkscape:version="0.48.2 r9819"
   sodipodi:docname="background.svg"
   inkscape:export-filename="C:\Users\Adam\Dropbox\Projects\WhatsShakingNZ\background_dark.png"
   inkscape:export-xdpi="90"
   inkscape:export-ydpi="90">
  <defs
     id="defs4">
    <linearGradient
       id="linearGradient4805">
      <stop
         style="stop-color:#464646;stop-opacity:0;"
         offset="0"
         id="stop4807" />
      <stop
         id="stop4813"
         offset="0.5"
         style="stop-color:#464646;stop-opacity:0.1254902;" />
      <stop
         style="stop-color:#464646;stop-opacity:1;"
         offset="1"
         id="stop4809" />
    </linearGradient>
    <linearGradient
       inkscape:collect="always"
       xlink:href="#linearGradient4805"
       id="linearGradient4811"
       x1="-0.67578125"
       y1="348"
       x2="484.92743"
       y2="348"
       gradientUnits="userSpaceOnUse" />
  </defs>
  <sodipodi:namedview
     id="base"
     pagecolor="#000000"
     bordercolor="#666666"
     borderopacity="1.0"
     inkscape:pageopacity="1"
     inkscape:pageshadow="2"
     inkscape:zoom="1"
     inkscape:cx="-81.520197"
     inkscape:cy="380.26939"
     inkscape:document-units="px"
     inkscape:current-layer="layer2"
     showgrid="false"
     showguides="true"
     inkscape:guide-bbox="true"
     inkscape:window-width="1920"
     inkscape:window-height="1138"
     inkscape:window-x="-8"
     inkscape:window-y="-8"
     inkscape:window-maximized="1" />
  <metadata
     id="metadata7">
    <rdf:RDF>
      <cc:Work
         rdf:about="">
        <dc:format>image/svg+xml</dc:format>
        <dc:type
           rdf:resource="http://purl.org/dc/dcmitype/StillImage" />
        <dc:title></dc:title>
      </cc:Work>
    </rdf:RDF>
  </metadata>
  <g
     inkscape:label="Layer 1"
     inkscape:groupmode="layer"
     id="layer1"
     transform="translate(0,-356.36218)">
    <path
       style="fill:none;stroke:#000000;stroke-width:1px;stroke-linecap:butt;stroke-linejoin:miter;stroke-opacity:1"
       d="m 21.842556,1072.3622 628.314884,0"
       id="path2991"
       inkscape:connector-curvature="0" />
  </g>
  <g
     inkscape:groupmode="layer"
     id="layer2"
     inkscape:label="Layer">
    <path
       style="fill:none;stroke:url(#linearGradient4811);stroke-width:1.50000000000000000;stroke-linecap:butt;stroke-linejoin:miter;stroke-miterlimit:4;stroke-opacity:1;stroke-dasharray:none"
       d="m 0.07421875,361.99643 309.61037125,0 1.15166,5.0454 1.2552,-14.14213 0.74632,18.38477 1.69454,-9.54594 2.60508,0 1.03921,-5.48192 1.59988,12.61549 2.87468,-28.93072 1.6106,39.58021 2.29442,-24.73097 1.02849,10.58884 1.56066,-3.28738 15.746,0 2.13335,-2.1459 1.29365,5.22747 2.33157,-8.50099 1.3606,11.76378 2.51592,-13.36549 1.69455,14.587 1.99632,-11.95495 1.95342,8.81035 1.82269,-4.9516 24.62916,-0.125 3.36891,-6.8854 0.41053,19.42767 8.13541,-37.54989 3.77449,57.50421 8.1881,-81.81972 9.625,109.125 8.125,-175.875 6.25,219.125 7,-288.5 9.5,384 3,-428 4.23223,466.20621 3.82323,-509.206204 4,526.509504 3.61243,-548.15595 3.27145,565.53032 3.81066,-582.758873 7.42743,595.772743"
       id="path2994"
       inkscape:connector-curvature="0"
       sodipodi:nodetypes="ccccccccccccccccccccccccccccccccccccccccccc" />
  </g>
</svg>
